<svg width="24" height="25" viewBox="0 0 24 25" fill="none" xmlns="http://www.w3.org/2000/svg">
<path fill-rule="evenodd" clip-rule="evenodd" d="M16.0171 6.60387H8.16805C7.1272 6.60387 6.12898 7.01734 5.39298 7.75334C4.65699 8.48933 4.24352 9.48755 4.24352 10.5284V18.3775H16.0171C17.058 18.3775 18.0562 17.964 18.7922 17.228C19.5282 16.492 19.9416 15.4938 19.9416 14.4529V10.5284C19.9416 9.48755 19.5282 8.48933 18.7922 7.75334C18.0562 7.01734 17.058 6.60387 16.0171 6.60387ZM8.16805 4.6416C6.60677 4.6416 5.10944 5.26182 4.00545 6.3658C2.90146 7.46979 2.28125 8.96712 2.28125 10.5284V20.3397H16.0171C17.5784 20.3397 19.0757 19.7195 20.1797 18.6155C21.2837 17.5115 21.9039 16.0142 21.9039 14.4529V10.5284C21.9039 8.96712 21.2837 7.46979 20.1797 6.3658C19.0757 5.26182 17.5784 4.6416 16.0171 4.6416H8.16805ZM8.16805 9.54727H16.0171V11.5095H8.16805V9.54727ZM11.1114 13.4718H8.16805V15.4341H11.1114V13.4718Z" fill="#121117"/>
</svg>
