<svg width="18" height="18" viewBox="0 0 18 18" fill="none" xmlns="http://www.w3.org/2000/svg">
<path d="M9 17.0625C4.5525 17.0625 0.9375 13.4475 0.9375 9C0.9375 4.5525 4.5525 0.9375 9 0.9375C13.4475 0.9375 17.0625 4.5525 17.0625 9C17.0625 13.4475 13.4475 17.0625 9 17.0625ZM9 2.0625C5.175 2.0625 2.0625 5.175 2.0625 9C2.0625 12.825 5.175 15.9375 9 15.9375C12.825 15.9375 15.9375 12.825 15.9375 9C15.9375 5.175 12.825 2.0625 9 2.0625Z" fill="#292D32"/>
<path d="M11.7791 11.9473C11.6816 11.9473 11.5841 11.9248 11.4941 11.8648L9.16906 10.4773C8.59156 10.1323 8.16406 9.37482 8.16406 8.70732V5.63232C8.16406 5.32482 8.41906 5.06982 8.72656 5.06982C9.03406 5.06982 9.28906 5.32482 9.28906 5.63232V8.70732C9.28906 8.97732 9.51406 9.37482 9.74656 9.50982L12.0716 10.8973C12.3416 11.0548 12.4241 11.3998 12.2666 11.6698C12.1541 11.8498 11.9666 11.9473 11.7791 11.9473Z" fill="#292D32"/>
</svg>
