<svg width="24" height="25" viewBox="0 0 24 25" fill="none" xmlns="http://www.w3.org/2000/svg">
<path fill-rule="evenodd" clip-rule="evenodd" d="M12.9848 6.48824C13.4375 6.03788 13.9751 5.68194 14.5664 5.44108C15.1577 5.20022 15.791 5.07924 16.4295 5.08517C17.0679 5.0911 17.6989 5.22381 18.2856 5.47561C18.8724 5.7274 19.4033 6.09326 19.8475 6.55194C20.2917 7.01061 20.6403 7.55297 20.8731 8.1475C21.106 8.74204 21.2183 9.37691 21.2038 10.0152C21.1892 10.6536 21.048 11.2827 20.7883 11.866C20.5285 12.4493 20.1555 12.9751 19.6909 13.4131L12.1008 20.5282L4.51178 13.4131C4.05256 12.9738 3.68474 12.4481 3.42946 11.8661C3.17418 11.2842 3.0365 10.6575 3.02432 10.0221C3.01215 9.38677 3.12572 8.75527 3.35852 8.16397C3.59131 7.57266 3.93872 7.03323 4.38077 6.57669C4.82282 6.12015 5.35078 5.75553 5.93427 5.5038C6.51776 5.25207 7.14527 5.11819 7.78069 5.10988C8.41612 5.10157 9.04691 5.21898 9.63679 5.45537C10.2267 5.69175 10.764 6.04244 11.2178 6.48725L12.1008 7.37027L12.9848 6.48824ZM18.4144 7.87458C18.149 7.60912 17.8339 7.39855 17.4872 7.25489C17.1404 7.11122 16.7687 7.03728 16.3933 7.03728C16.0179 7.03728 15.6462 7.11122 15.2994 7.25489C14.9527 7.39855 14.6376 7.60912 14.3722 7.87458L12.1008 10.1459L9.82952 7.87458C9.56033 7.61119 9.24173 7.4036 8.89205 7.26375C8.54237 7.1239 8.16849 7.05454 7.79191 7.05965C7.41533 7.06477 7.04348 7.14426 6.69772 7.29356C6.35197 7.44286 6.03913 7.65902 5.77719 7.92962C5.51525 8.20023 5.30938 8.51993 5.1714 8.87036C5.03343 9.22079 4.96607 9.59503 4.97321 9.97157C4.98034 10.3481 5.06183 10.7195 5.21298 11.0645C5.36413 11.4094 5.58197 11.7211 5.85397 11.9816L12.1008 17.839L18.3487 11.9816C18.6283 11.7195 18.8523 11.4039 19.0075 11.0536C19.1627 10.7032 19.2458 10.3252 19.2519 9.94202C19.2581 9.55886 19.1871 9.17839 19.0432 8.82322C18.8993 8.46805 18.6855 8.14544 18.4144 7.87458Z" fill="#121117"/>
</svg>
