<svg width="47" height="48" viewBox="0 0 47 48" fill="none" xmlns="http://www.w3.org/2000/svg">
<path d="M23.3816 13.0002L22.5173 1.89718C22.4802 1.41975 22.8371 1.00401 23.3149 0.966995C23.7927 0.929985 24.2088 1.28652 24.2459 1.76395C24.2496 1.80713 24.2483 1.85524 24.2459 1.89842L23.3816 13.0015V13.0002Z" fill="#2D1F0F"/>
<path d="M22.5169 46.3091L23.3811 35.2061L24.2454 46.3091C24.2825 46.7865 23.9256 47.2023 23.4478 47.2393C22.9231 47.2849 22.4712 46.8322 22.5169 46.3091Z" fill="#2D1F0F"/>
<path d="M21.1456 15.7613L16.7958 2.87687C16.6427 2.42411 16.8859 1.93311 17.3391 1.78014C17.7922 1.62716 18.2836 1.8702 18.4367 2.32295C18.4935 2.48086 21.1049 15.6096 21.1456 15.7601V15.7613Z" fill="#2D1F0F"/>
<path d="M28.2987 45.7759L25.6182 32.4448L29.968 45.3293C30.1211 45.7821 29.8779 46.2731 29.4247 46.426C28.9358 46.595 28.3975 46.2829 28.2987 45.7771V45.7759Z" fill="#2D1F0F"/>
<path d="M19.7983 17.9051L11.5197 5.30442C11.2579 4.90471 11.369 4.36929 11.7678 4.10652C12.1679 3.84375 12.7037 3.95601 12.9667 4.35449C13.0223 4.42851 19.7489 17.8188 19.7983 17.9051Z" fill="#2D1F0F"/>
<path d="M33.7451 43.7641L26.9629 30.2998L35.2415 42.9005C35.8576 43.9442 34.3427 44.8214 33.7451 43.7641Z" fill="#2D1F0F"/>
<path d="M18.8834 19.6087L7.05501 9.01146C6.69942 8.69317 6.66978 8.14542 6.98833 7.79012C7.30688 7.43482 7.85509 7.40522 8.21068 7.7235C8.26871 7.76545 18.8241 19.5507 18.8834 19.6087Z" fill="#2D1F0F"/>
<path d="M38.4859 40.4148L27.8799 28.5962L39.7082 39.1934C40.5701 40.0397 39.3366 41.2771 38.4859 40.4148Z" fill="#2D1F0F"/>
<path d="M17.1786 20.5243L3.70315 13.7477C3.27595 13.533 3.10433 13.0124 3.31917 12.5856C3.534 12.1587 4.05503 11.9872 4.48224 12.2019C4.56743 12.2377 17.0934 20.4737 17.1798 20.523L17.1786 20.5243Z" fill="#2D1F0F"/>
<path d="M42.1961 35.9539L29.585 27.6821L43.0604 34.4587C44.1161 35.0546 43.2432 36.5707 42.1961 35.9539Z" fill="#2D1F0F"/>
<path d="M15.0333 21.8679L1.69121 19.1896C1.22203 19.0959 0.918294 18.6394 1.01213 18.1706C1.10597 17.7018 1.56281 17.3983 2.03199 17.4921C2.19744 17.5217 14.8827 21.8272 15.0333 21.8667V21.8679Z" fill="#2D1F0F"/>
<path d="M44.6246 30.6846L31.7295 26.3384L45.0716 29.0167C45.5408 29.1104 45.8445 29.5669 45.7507 30.0357C45.6532 30.544 45.1136 30.8536 44.6246 30.6846Z" fill="#2D1F0F"/>
<path d="M12.2695 24.1032L1.15724 24.9668C0.679412 25.0038 0.263315 24.6473 0.226275 24.1698C0.189234 23.6924 0.546056 23.2767 1.02388 23.2396C1.0671 23.2359 1.11526 23.2372 1.15847 23.2396L12.2707 24.1032H12.2695Z" fill="#2D1F0F"/>
<path d="M45.6064 24.9666L34.4941 24.103L45.6064 23.2395C46.0842 23.2024 46.5003 23.559 46.5373 24.0364C46.583 24.5607 46.1299 25.0122 45.6064 24.9666Z" fill="#2D1F0F"/>
<path d="M15.0337 26.3374L2.13856 30.6836C1.68543 30.8366 1.19402 30.5936 1.04092 30.1408C0.887816 29.6881 1.13105 29.1971 1.58419 29.0441C1.74223 28.9873 14.8819 26.3781 15.0325 26.3374H15.0337Z" fill="#2D1F0F"/>
<path d="M45.0736 19.1893L31.7314 21.8676L44.6266 17.5213C45.0797 17.3684 45.5711 17.6114 45.7242 18.0642C45.8934 18.5527 45.581 19.0906 45.0748 19.1893H45.0736Z" fill="#2D1F0F"/>
<path d="M17.1789 27.6821L4.56774 35.9539C4.1677 36.2167 3.63183 36.1044 3.36884 35.7059C3.10585 35.3062 3.21821 34.7708 3.61702 34.508C3.6911 34.4525 17.0925 27.7315 17.1789 27.6821Z" fill="#2D1F0F"/>
<path d="M43.0604 13.7476L29.585 20.5242L42.1961 12.2524C43.2407 11.6368 44.1186 13.1505 43.0604 13.7476Z" fill="#2D1F0F"/>
<path d="M18.8834 28.5972L8.27735 40.4157C7.95879 40.771 7.4106 40.8007 7.05501 40.4824C6.69942 40.1641 6.66978 39.6163 6.98833 39.261C7.03031 39.203 18.8253 28.6564 18.8834 28.5972Z" fill="#2D1F0F"/>
<path d="M39.7082 9.01038L27.8799 19.6076L38.4859 7.78904C39.3329 6.92794 40.5713 8.16038 39.7082 9.01038Z" fill="#2D1F0F"/>
<path d="M19.7988 30.2996L13.0166 43.7639C12.8018 44.1907 12.2808 44.3622 11.8536 44.1475C11.4264 43.9329 11.2547 43.4123 11.4696 42.9854C11.5054 42.9003 19.7482 30.3847 19.7976 30.2983L19.7988 30.2996Z" fill="#2D1F0F"/>
<path d="M35.2415 5.30355L26.9629 17.9043L33.7451 4.43998C34.3414 3.38519 35.8589 4.2574 35.2415 5.30355Z" fill="#2D1F0F"/>
<path d="M21.1455 32.4438L18.465 45.7749C18.3711 46.2437 17.9143 46.5472 17.4451 46.4534C16.9759 46.3597 16.6722 45.9032 16.766 45.4344C16.7957 45.2691 21.1048 32.5944 21.1443 32.4438H21.1455Z" fill="#2D1F0F"/>
<path d="M29.9699 2.87648L25.6201 15.761L28.3006 2.42989C28.3945 1.9611 28.8513 1.65762 29.3205 1.75137C29.8292 1.84883 30.1391 2.38795 29.9699 2.87648Z" fill="#2D1F0F"/>
</svg>
