<svg width="11" height="11" viewBox="0 0 11 11" fill="none" xmlns="http://www.w3.org/2000/svg">
<path fill-rule="evenodd" clip-rule="evenodd" d="M4.87172 0.595215H3.69715V1.76978H0.760742V2.94434H5.46781C5.44045 3.83731 5.17396 4.70658 4.69612 5.46144L2.9378 3.7037L2.10738 4.53412L3.96672 6.39345C3.79229 6.57669 3.61082 6.74582 3.42759 6.90145C2.79676 7.43174 2.09131 7.86629 1.33393 8.19113C1.27626 8.21558 1.21811 8.23888 1.15951 8.26101L1.15246 8.26336L1.34802 8.81717L1.54418 9.37098L1.54653 9.3698L1.55064 9.36863L1.56532 9.36275C1.64105 9.33494 1.71605 9.30517 1.79025 9.27349C2.65754 8.90214 3.46517 8.40462 4.18695 7.79706C4.39328 7.62283 4.59668 7.43177 4.79713 7.22387L5.63108 8.05781L6.46149 7.2274L5.54357 6.30947C6.23127 5.31939 6.6137 4.14946 6.64355 2.94434H7.80813V1.76978H4.87172V0.595215ZM9.71856 10.579L9.36795 9.64171H7.42052L7.06816 10.579H5.8701L7.78699 5.64584H8.99914L10.9166 10.579H9.71856ZM8.39424 7.03946L8.99327 8.64098H7.79462L8.39424 7.03946Z" fill="#4D4C5C"/>
</svg>
