<svg width="150" height="34" viewBox="0 0 150 34" fill="none" xmlns="http://www.w3.org/2000/svg">
<path d="M17.2273 8.83998L16.5906 0.685134C16.5634 0.334475 16.8262 0.0291215 17.1782 0.00193863C17.5302 -0.0252442 17.8367 0.236617 17.864 0.587276C17.8667 0.618989 17.8658 0.654326 17.864 0.68604L17.2273 8.84089V8.83998Z" fill="#2D2424"/>
<path d="M16.5903 33.3046L17.2269 25.1497L17.8636 33.3046C17.8909 33.6552 17.628 33.9606 17.276 33.9878C16.8895 34.0213 16.5566 33.6888 16.5903 33.3046Z" fill="#2D2424"/>
<path d="M15.5792 10.8679L12.375 1.40467C12.2622 1.07213 12.4413 0.711504 12.7751 0.599148C13.1089 0.486792 13.4709 0.665293 13.5837 0.997829C13.6255 1.11381 15.5492 10.7565 15.5792 10.867V10.8679Z" fill="#2D2424"/>
<path d="M20.8488 32.9132L18.8743 23.1219L22.0785 32.5851C22.1913 32.9177 22.0121 33.2783 21.6783 33.3907C21.3182 33.5148 20.9216 33.2856 20.8488 32.9141V32.9132Z" fill="#2D2424"/>
<path d="M14.5887 12.4426L8.49036 3.18777C8.29755 2.89419 8.3794 2.50095 8.67318 2.30795C8.96787 2.11495 9.3626 2.19741 9.55632 2.49008C9.59725 2.54444 14.5524 12.3792 14.5887 12.4426Z" fill="#2D2424"/>
<path d="M24.861 31.4353L19.865 21.5462L25.9633 30.801C26.4172 31.5676 25.3012 32.2118 24.861 31.4353Z" fill="#2D2424"/>
<path d="M13.9139 13.694L5.20067 5.91064C4.93873 5.67687 4.9169 5.27456 5.15155 5.01361C5.38621 4.75265 5.79004 4.73091 6.05198 4.96468C6.09473 4.99548 13.8703 13.6514 13.9139 13.694Z" fill="#2D2424"/>
<path d="M28.3535 28.9752L20.5407 20.2948L29.2539 28.0781C29.8888 28.6997 28.9801 29.6085 28.3535 28.9752Z" fill="#2D2424"/>
<path d="M12.6577 14.3663L2.73111 9.38913C2.41642 9.23147 2.28999 8.8491 2.44825 8.53559C2.60651 8.22208 2.99032 8.09613 3.30502 8.25379C3.36777 8.28007 12.5949 14.3292 12.6586 14.3654L12.6577 14.3663Z" fill="#2D2424"/>
<path d="M31.0863 25.6988L21.7964 19.6235L31.723 24.6006C32.5006 25.0383 31.8576 26.1519 31.0863 25.6988Z" fill="#2D2424"/>
<path d="M11.077 15.353L1.24872 13.3859C0.903099 13.317 0.679356 12.9817 0.74848 12.6374C0.817603 12.2931 1.15413 12.0702 1.49975 12.1391C1.62162 12.1608 10.9661 15.3231 11.077 15.3521V15.353Z" fill="#2D2424"/>
<path d="M32.8757 21.8288L23.3766 18.6367L33.2049 20.6038C33.5506 20.6727 33.7743 21.0079 33.7052 21.3522C33.6333 21.7255 33.2359 21.953 32.8757 21.8288Z" fill="#2D2424"/>
<path d="M9.04142 16.9948L0.8557 17.629C0.503714 17.6562 0.1972 17.3944 0.169915 17.0437C0.142629 16.693 0.405478 16.3877 0.757464 16.3605C0.789297 16.3578 0.824777 16.3587 0.85661 16.3605L9.04233 16.9948H9.04142Z" fill="#2D2424"/>
<path d="M33.5987 17.6291L25.413 16.9949L33.5987 16.3606C33.9507 16.3334 34.2572 16.5953 34.2845 16.9459C34.3181 17.331 33.9843 17.6627 33.5987 17.6291Z" fill="#2D2424"/>
<path d="M11.0767 18.6358L1.57763 21.828C1.24383 21.9403 0.881841 21.7618 0.76906 21.4293C0.656279 21.0968 0.835457 20.7361 1.16925 20.6238C1.28567 20.5821 10.9648 18.6657 11.0758 18.6358H11.0767Z" fill="#2D2424"/>
<path d="M33.2056 13.3858L23.3772 15.353L32.8763 12.1608C33.2101 12.0484 33.5721 12.2269 33.6849 12.5595C33.8095 12.9183 33.5794 13.3133 33.2065 13.3858H33.2056Z" fill="#2D2424"/>
<path d="M12.6579 19.6235L3.368 25.6988C3.07332 25.8918 2.67857 25.8094 2.48485 25.5167C2.29112 25.2231 2.37388 24.8299 2.66766 24.6369C2.72223 24.5961 12.5942 19.6597 12.6579 19.6235Z" fill="#2D2424"/>
<path d="M31.723 9.38903L21.7964 14.3662L31.0863 8.29084C31.8558 7.8387 32.5024 8.95048 31.723 9.38903Z" fill="#2D2424"/>
<path d="M13.9139 20.2958L6.10109 28.9762C5.86643 29.2371 5.46261 29.2589 5.20067 29.0251C4.93873 28.7913 4.9169 28.389 5.15155 28.1281C5.18248 28.0855 13.8712 20.3393 13.9139 20.2958Z" fill="#2D2424"/>
<path d="M29.2539 5.9097L20.5407 13.6931L28.3535 5.01267C28.9774 4.38022 29.8897 5.2854 29.2539 5.9097Z" fill="#2D2424"/>
<path d="M14.5887 21.5461L9.59271 31.4352C9.43445 31.7487 9.05064 31.8746 8.73594 31.717C8.42125 31.5593 8.29481 31.1769 8.45307 30.8634C8.47945 30.8009 14.5514 21.6086 14.5878 21.5452L14.5887 21.5461Z" fill="#2D2424"/>
<path d="M25.9639 3.18682L19.8656 12.4417L24.8616 2.55256C25.3009 1.77785 26.4187 2.41846 25.9639 3.18682Z" fill="#2D2424"/>
<path d="M15.5789 23.1209L13.6043 32.9122C13.5352 33.2565 13.1987 33.4794 12.853 33.4105C12.5074 33.3416 12.2837 33.0064 12.3528 32.6621C12.3746 32.5407 15.5489 23.2314 15.578 23.1209H15.5789Z" fill="#2D2424"/>
<path d="M22.0798 1.40461L18.8755 10.8679L20.8501 1.0766C20.9192 0.732287 21.2557 0.509388 21.6014 0.578251C21.9761 0.649832 22.2044 1.0458 22.0798 1.40461Z" fill="#2D2424"/>
<path d="M43.8884 22.3979V21.6336C45.3796 22.7592 48.3169 23.5877 50.9997 23.5877C54.1512 23.5877 54.6198 22.3562 54.6198 21.4217C54.6198 17.0271 44.0575 18.6825 44.0575 13.7356C44.0575 11.719 45.8241 10.2531 50.6374 10.2531C52.383 10.2531 54.3847 10.4441 56.5152 11.1667V11.7399C54.8115 10.9965 52.5328 10.3815 50.3395 10.3815C47.7839 10.3815 46.6341 11.2309 46.6341 12.5475C46.6341 16.6033 57.5152 15.4777 57.5152 20.1276C57.5152 21.8472 56.0031 23.737 50.4876 23.737C47.6985 23.737 45.4617 23.2489 43.8868 22.3995L43.8884 22.3979Z" fill="#2D2424"/>
<path d="M60.9212 17.0047C60.9212 12.8221 64.3915 10.2531 68.8635 10.2531C73.3354 10.2531 76.7848 12.8429 76.7848 16.9838C76.7848 21.1247 73.3145 23.7354 68.8635 23.7354C64.4125 23.7354 60.9212 21.1455 60.9212 17.0047ZM74.3355 19.2333C74.3355 14.7327 70.63 10.7203 66.9471 10.7203C64.7748 10.7203 63.3705 12.0369 63.3705 14.7536C63.3705 19.2541 67.076 23.289 70.7379 23.289C72.9522 23.289 74.3371 21.9516 74.3371 19.2333H74.3355Z" fill="#2D2424"/>
<path d="M93.9253 23.5219H90.6241L80.999 11.3562V15.921C80.999 20.1453 81.0634 22.4606 81.3178 23.5219H80.5304C80.7864 22.4606 80.8492 20.1453 80.8492 15.921V15.7299C80.8492 12.6295 80.7848 11.1443 80.2953 10.4651H83.5965L93.2216 22.6308V18.0661C93.2216 13.8417 93.1572 11.5264 92.9028 10.4651H93.6902C93.4342 11.5264 93.3714 13.8401 93.3714 18.0661V18.2571C93.3714 21.3576 93.4358 22.8427 93.9253 23.5219Z" fill="#2D2424"/>
<path d="M112.237 16.8779C112.237 20.7201 109.575 23.5235 103.251 23.5235H97.6502C97.6921 23.2474 97.7565 22.4413 97.7565 20.0201V13.9685C97.7565 11.5489 97.6921 10.7413 97.6502 10.4651H103.251C109.575 10.4651 112.237 13.0341 112.237 16.8763V16.8779ZM109.49 17.4945C109.49 13.3969 107.765 10.616 103.591 10.616H100.525V23.3758H103.591C107.765 23.3758 109.49 21.6128 109.49 17.4945Z" fill="#2D2424"/>
<path d="M115.854 17.0047C115.854 12.8221 119.324 10.2531 123.796 10.2531C128.268 10.2531 131.717 12.8429 131.717 16.9838C131.717 21.1247 128.247 23.7354 123.796 23.7354C119.345 23.7354 115.854 21.1455 115.854 17.0047ZM129.268 19.2333C129.268 14.7327 125.562 10.7203 121.88 10.7203C119.707 10.7203 118.303 12.0369 118.303 14.7536C118.303 19.2541 122.008 23.289 125.67 23.289C127.885 23.289 129.269 21.9516 129.269 19.2333H129.268Z" fill="#2D2424"/>
<path d="M135.55 20.0201V13.9685C135.55 11.7608 135.485 10.7413 135.444 10.4651H141.747C147.198 10.4651 148.966 11.8026 148.966 14.0312C148.966 15.9001 147.752 17.0465 143.792 17.3435L149.499 23.5219H145.751C145.751 23.2458 145.495 22.9278 144.729 22.0351L140.832 17.5763H138.32V23.5203H135.445C135.487 23.2441 135.551 22.2246 135.551 20.0169L135.55 20.0201ZM141.959 17.4302C145.025 17.4302 146.239 16.051 146.239 14.0328C146.239 12.0145 145.025 10.6144 141.959 10.6144H138.318V17.4302H141.959Z" fill="#2D2424"/>
</svg>
