<svg width="158" height="40" viewBox="0 0 158 40" fill="none" xmlns="http://www.w3.org/2000/svg">
<path d="M20.0716 10.4003L19.3226 0.806064C19.2905 0.393512 19.5997 0.0342616 20.0139 0.00228081C20.428 -0.0296999 20.7886 0.278381 20.8207 0.690933C20.8239 0.728244 20.8228 0.769819 20.8207 0.80713L20.0716 10.4014V10.4003Z" fill="white"/>
<path d="M19.3231 39.1831L20.0721 29.5889L20.8212 39.1831C20.8533 39.5956 20.544 39.9549 20.1299 39.9869C19.6751 40.0263 19.2835 39.6351 19.3231 39.1831Z" fill="white"/>
<path d="M18.1298 12.7861L14.36 1.65252C14.2273 1.26129 14.4381 0.837014 14.8308 0.704827C15.2235 0.57264 15.6494 0.782647 15.7821 1.17388C15.8313 1.31033 18.0945 12.655 18.1298 12.785V12.7861Z" fill="white"/>
<path d="M24.3309 38.7226L22.0078 27.2031L25.7776 38.3367C25.9103 38.7279 25.6995 39.1522 25.3068 39.2844C24.8831 39.4304 24.4165 39.1607 24.3309 38.7237V38.7226Z" fill="white"/>
<path d="M16.9695 14.6389L9.79471 3.75048C9.56786 3.40509 9.66417 2.94244 10.0098 2.71537C10.3565 2.48831 10.8209 2.58532 11.0488 2.92964C11.097 2.99361 16.9267 14.5642 16.9695 14.6389Z" fill="white"/>
<path d="M29.0497 36.9837L23.1719 25.3491L30.3466 36.2375C30.8806 37.1394 29.5676 37.8973 29.0497 36.9837Z" fill="white"/>
<path d="M16.1722 16.1111L5.92098 6.95392C5.6128 6.67889 5.58712 6.20557 5.86319 5.89855C6.13927 5.59154 6.61438 5.56595 6.92256 5.84099C6.97285 5.87723 16.1208 16.061 16.1722 16.1111Z" fill="white"/>
<path d="M33.1606 34.0895L23.9688 23.877L34.2199 33.0341C34.9668 33.7654 33.8978 34.8346 33.1606 34.0895Z" fill="white"/>
<path d="M14.6933 16.902L3.01461 11.0463C2.64436 10.8608 2.49563 10.4109 2.68182 10.0421C2.86801 9.67326 3.31957 9.52508 3.68981 9.71057C3.76364 9.74148 14.6194 16.8583 14.6943 16.9009L14.6933 16.902Z" fill="white"/>
<path d="M36.3749 30.2349L25.4453 23.0872L37.124 28.9428C38.0389 29.4577 37.2823 30.7679 36.3749 30.2349Z" fill="white"/>
<path d="M12.8382 18.063L1.27515 15.7486C0.86853 15.6676 0.605295 15.2732 0.68662 14.8681C0.767945 14.463 1.16387 14.2008 1.57049 14.2818C1.71388 14.3074 12.7077 18.0278 12.8382 18.0619V18.063Z" fill="white"/>
<path d="M38.4804 25.6816L27.3047 21.926L38.8678 24.2404C39.2744 24.3214 39.5376 24.7158 39.4563 25.1209C39.3718 25.5601 38.9041 25.8277 38.4804 25.6816Z" fill="white"/>
<path d="M10.4397 19.9946L0.80912 20.7408C0.395006 20.7728 0.0343913 20.4647 0.00228947 20.0521C-0.0298124 19.6396 0.279431 19.2803 0.693545 19.2484C0.730997 19.2452 0.772739 19.2462 0.810191 19.2484L10.4407 19.9946H10.4397Z" fill="white"/>
<path d="M39.3337 20.7408L29.7031 19.9946L39.3337 19.2484C39.7478 19.2164 40.1084 19.5245 40.1405 19.937C40.1801 20.3901 39.7874 20.7803 39.3337 20.7408Z" fill="white"/>
<path d="M12.8308 21.925L1.65504 25.6807C1.26233 25.8128 0.836444 25.6028 0.703756 25.2116C0.571069 24.8204 0.781873 24.3961 1.17459 24.2639C1.31155 24.2149 12.6991 21.9602 12.8297 21.925H12.8308Z" fill="white"/>
<path d="M38.8678 15.7484L27.3047 18.0627L38.4804 14.3071C38.8731 14.1749 39.299 14.3849 39.4317 14.7762C39.5783 15.1983 39.3076 15.6631 38.8688 15.7484H38.8678Z" fill="white"/>
<path d="M14.6935 23.0872L3.76391 30.2349C3.41721 30.4619 2.95279 30.3649 2.72487 30.0206C2.49695 29.6752 2.59433 29.2125 2.93996 28.9855C3.00416 28.9375 14.6186 23.1298 14.6935 23.0872Z" fill="white"/>
<path d="M37.124 11.0463L25.4453 16.902L36.3749 9.75426C37.2802 9.22231 38.041 10.5303 37.124 11.0463Z" fill="white"/>
<path d="M16.1722 23.8782L6.98033 34.0907C6.70426 34.3977 6.22916 34.4233 5.92098 34.1483C5.6128 33.8732 5.58712 33.3999 5.86319 33.0929C5.89958 33.0428 16.1219 23.9293 16.1722 23.8782Z" fill="white"/>
<path d="M34.2199 6.95286L23.9688 16.11L33.1606 5.89749C33.8946 5.15341 34.9679 6.21837 34.2199 6.95286Z" fill="white"/>
<path d="M16.963 25.349L11.0851 36.9836C10.8989 37.3524 10.4474 37.5006 10.0771 37.3151C9.70687 37.1296 9.55812 36.6797 9.74432 36.3109C9.77535 36.2373 16.9191 25.4225 16.9619 25.3479L16.963 25.349Z" fill="white"/>
<path d="M30.3466 3.74941L23.1719 14.6378L29.0497 3.00319C29.5666 2.09174 30.8817 2.84542 30.3466 3.74941Z" fill="white"/>
<path d="M18.1306 27.2019L15.8075 38.7214C15.7261 39.1265 15.3302 39.3887 14.9236 39.3077C14.517 39.2267 14.2537 38.8322 14.3351 38.4272C14.3607 38.2843 18.0953 27.332 18.1295 27.2019H18.1306Z" fill="white"/>
<path d="M25.7776 1.65243L22.0078 12.786L24.3309 1.26653C24.4122 0.861441 24.8082 0.599199 25.2148 0.680217C25.6556 0.764433 25.9242 1.23029 25.7776 1.65243Z" fill="white"/>
<path d="M52.1422 25.3978V24.6335C53.6334 25.759 56.5707 26.5875 59.2536 26.5875C62.4051 26.5875 62.8737 25.356 62.8737 24.4216C62.8737 20.027 52.3113 21.6824 52.3113 16.7355C52.3113 14.7188 54.0779 13.2529 58.8913 13.2529C60.6369 13.2529 62.6386 13.444 64.7691 14.1665V14.7397C63.0653 13.9963 60.7866 13.3814 58.5933 13.3814C56.0377 13.3814 54.8879 14.2307 54.8879 15.5473C54.8879 19.6031 65.7691 18.4776 65.7691 23.1274C65.7691 24.847 64.2569 26.7369 58.7415 26.7369C55.9523 26.7369 53.7156 26.2487 52.1406 25.3994L52.1422 25.3978Z" fill="white"/>
<path d="M69.1719 20.0045C69.1719 15.8219 72.6422 13.2529 77.1142 13.2529C81.5861 13.2529 85.0355 15.8428 85.0355 19.9837C85.0355 24.1245 81.5652 26.7352 77.1142 26.7352C72.6631 26.7352 69.1719 24.1454 69.1719 20.0045ZM82.5861 22.2331C82.5861 17.7326 78.8807 13.7202 75.1978 13.7202C73.0254 13.7202 71.6212 15.0368 71.6212 17.7535C71.6212 22.254 75.3266 26.2889 78.9886 26.2889C81.2028 26.2889 82.5878 24.9514 82.5878 22.2331H82.5861Z" fill="white"/>
<path d="M102.177 26.5217H98.8757L89.2506 14.356V18.9207C89.2506 23.1451 89.315 25.4604 89.5694 26.5217H88.782C89.038 25.4604 89.1008 23.1451 89.1008 18.9207V18.7296C89.1008 15.6292 89.0364 14.144 88.5469 13.4648H91.8481L101.473 25.6306V21.0658C101.473 16.8414 101.409 14.5262 101.154 13.4648H101.942C101.686 14.5262 101.623 16.8398 101.623 21.0658V21.2569C101.623 24.3573 101.687 25.8425 102.177 26.5217Z" fill="white"/>
<path d="M120.493 19.8777C120.493 23.7199 117.831 26.5233 111.507 26.5233H105.906C105.948 26.2471 106.013 25.4411 106.013 23.0198V16.9683C106.013 14.5486 105.948 13.741 105.906 13.4648H111.507C117.831 13.4648 120.493 16.0338 120.493 19.876V19.8777ZM117.746 20.4942C117.746 16.3967 116.021 13.6158 111.847 13.6158H108.781V26.3756H111.847C116.021 26.3756 117.746 24.6126 117.746 20.4942Z" fill="white"/>
<path d="M124.109 20.0045C124.109 15.8219 127.58 13.2529 132.052 13.2529C136.524 13.2529 139.973 15.8428 139.973 19.9837C139.973 24.1245 136.503 26.7352 132.052 26.7352C127.601 26.7352 124.109 24.1454 124.109 20.0045ZM137.524 22.2331C137.524 17.7326 133.818 13.7202 130.135 13.7202C127.963 13.7202 126.559 15.0368 126.559 17.7535C126.559 22.254 130.264 26.2889 133.926 26.2889C136.14 26.2889 137.525 24.9514 137.525 22.2331H137.524Z" fill="white"/>
<path d="M143.802 23.0198V16.9683C143.802 14.7606 143.737 13.741 143.695 13.4648H149.998C155.449 13.4648 157.217 14.8023 157.217 17.0309C157.217 18.8998 156.003 20.0462 152.043 20.3433L157.751 26.5217H154.003C154.003 26.2455 153.747 25.9276 152.981 25.0349L149.084 20.5761H146.571V26.5201H143.697C143.739 26.2439 143.803 25.2243 143.803 23.0166L143.802 23.0198ZM150.211 20.43C153.277 20.43 154.491 19.0508 154.491 17.0325C154.491 15.0143 153.277 13.6142 150.211 13.6142H146.57V20.43H150.211Z" fill="white"/>
</svg>
