<svg width="10" height="12" viewBox="0 0 10 12" fill="none" xmlns="http://www.w3.org/2000/svg">
<path fill-rule="evenodd" clip-rule="evenodd" d="M5.04689 5.41261C4.57962 5.41261 4.13149 5.22699 3.80108 4.89658C3.47067 4.56617 3.28504 4.11804 3.28504 3.65077C3.28504 3.1835 3.47067 2.73536 3.80108 2.40495C4.13149 2.07454 4.57962 1.88892 5.04689 1.88892C5.51416 1.88892 5.9623 2.07454 6.29271 2.40495C6.62312 2.73536 6.80874 3.1835 6.80874 3.65077C6.80874 4.11804 6.62312 4.56617 6.29271 4.89658C5.9623 5.22699 5.51416 5.41261 5.04689 5.41261ZM2.11048 3.65077C2.11048 2.87198 2.41985 2.12509 2.97054 1.57441C3.52122 1.02373 4.26811 0.714355 5.04689 0.714355C5.82568 0.714355 6.57256 1.02373 7.12325 1.57441C7.67393 2.12509 7.9833 2.87198 7.9833 3.65077C7.9833 4.42955 7.67393 5.17644 7.12325 5.72712C6.57256 6.27781 5.82568 6.58718 5.04689 6.58718C4.26811 6.58718 3.52122 6.27781 2.97054 5.72712C2.41985 5.17644 2.11048 4.42955 2.11048 3.65077ZM9.74515 11.2854V7.76174H0.348633V11.2854H9.74515Z" fill="#4D4C5C"/>
</svg>
