<svg width="18" height="18" viewBox="0 0 18 18" fill="none" xmlns="http://www.w3.org/2000/svg">
<path d="M11.25 17.0625H6.75C2.6775 17.0625 0.9375 15.3225 0.9375 11.25V6.75C0.9375 2.6775 2.6775 0.9375 6.75 0.9375H11.25C15.3225 0.9375 17.0625 2.6775 17.0625 6.75V11.25C17.0625 15.3225 15.3225 17.0625 11.25 17.0625ZM6.75 2.0625C3.2925 2.0625 2.0625 3.2925 2.0625 6.75V11.25C2.0625 14.7075 3.2925 15.9375 6.75 15.9375H11.25C14.7075 15.9375 15.9375 14.7075 15.9375 11.25V6.75C15.9375 3.2925 14.7075 2.0625 11.25 2.0625H6.75Z" fill="#292D32"/>
<path d="M7.26 12.585H6.1425C5.34 12.585 4.6875 11.9325 4.6875 11.13V9.12744C4.6875 8.81994 4.9425 8.56494 5.25 8.56494H7.26C8.0775 8.56494 8.715 9.20244 8.715 10.0199V11.1374C8.7075 11.9399 8.07 12.585 7.26 12.585ZM5.8125 9.68243V11.1225C5.8125 11.3025 5.9625 11.4525 6.1425 11.4525H7.26C7.5 11.4525 7.59 11.2725 7.59 11.1225V10.005C7.59 9.85497 7.5075 9.67497 7.26 9.67497H5.8125V9.68243Z" fill="#292D32"/>
<path d="M5.25 9.68267C4.9425 9.68267 4.6875 9.42767 4.6875 9.12017C4.6875 6.81017 5.19 6.2927 6.5325 5.4977C6.795 5.3402 7.1475 5.43021 7.305 5.69271C7.4625 5.95521 7.3725 6.30768 7.11 6.46518C6.09 7.07268 5.8125 7.23017 5.8125 9.12017C5.8125 9.43517 5.5575 9.68267 5.25 9.68267Z" fill="#292D32"/>
<path d="M11.8538 12.585H10.7363C9.93375 12.585 9.28125 11.9325 9.28125 11.13V9.12744C9.28125 8.81994 9.53625 8.56494 9.84375 8.56494H11.8538C12.6713 8.56494 13.3088 9.20244 13.3088 10.0199V11.1374C13.3088 11.9399 12.6713 12.585 11.8538 12.585ZM10.4138 9.68243V11.1225C10.4138 11.3025 10.5638 11.4525 10.7438 11.4525H11.8613C12.1013 11.4525 12.1913 11.2725 12.1913 11.1225V10.005C12.1913 9.85497 12.1088 9.67497 11.8613 9.67497H10.4138V9.68243Z" fill="#292D32"/>
<path d="M9.85156 9.68267C9.54406 9.68267 9.28906 9.42767 9.28906 9.12017C9.28906 6.81017 9.79156 6.2927 11.1341 5.4977C11.4041 5.3402 11.7491 5.43021 11.9066 5.69271C12.0641 5.95521 11.9741 6.30768 11.7116 6.46518C10.6916 7.07268 10.4141 7.23017 10.4141 9.12017C10.4141 9.43517 10.1591 9.68267 9.85156 9.68267Z" fill="#292D32"/>
</svg>
