<svg width="47" height="47" viewBox="0 0 47 47" fill="none" xmlns="http://www.w3.org/2000/svg">
<rect x="0.729167" y="1.46867" width="45.0417" height="45.0417" rx="22.5208" stroke="white" stroke-width="0.958333"/>
<g clip-path="url(#clip0_417_8448)">
<path d="M23.25 14.5621C26.3225 14.5621 26.6831 14.5758 27.8975 14.6306C29.0206 14.6808 29.6277 14.868 30.0341 15.0278C30.5728 15.2378 30.9562 15.4843 31.358 15.8861C31.7597 16.2878 32.0108 16.6713 32.2163 17.21C32.3715 17.6163 32.5632 18.2235 32.6135 19.3466C32.6682 20.561 32.6819 20.9216 32.6819 23.9941C32.6819 27.0665 32.6682 27.4272 32.6135 28.6415C32.5632 29.7646 32.3761 30.3718 32.2163 30.7781C32.0063 31.3168 31.7597 31.7003 31.358 32.102C30.9562 32.5038 30.5728 32.7549 30.0341 32.9603C29.6277 33.1155 29.0206 33.3073 27.8975 33.3575C26.6831 33.4123 26.3225 33.426 23.25 33.426C20.1776 33.426 19.8169 33.4123 18.6025 33.3575C17.4795 33.3073 16.8723 33.1201 16.466 32.9603C15.9273 32.7503 15.5438 32.5038 15.142 32.102C14.7403 31.7003 14.4892 31.3168 14.2837 30.7781C14.1285 30.3718 13.9368 29.7646 13.8866 28.6415C13.8318 27.4272 13.8181 27.0665 13.8181 23.9941C13.8181 20.9216 13.8318 20.561 13.8866 19.3466C13.9368 18.2235 14.124 17.6163 14.2837 17.21C14.4937 16.6713 14.7403 16.2878 15.142 15.8861C15.5438 15.4843 15.9273 15.2332 16.466 15.0278C16.8723 14.8726 17.4795 14.6808 18.6025 14.6306C19.8169 14.5713 20.1821 14.5621 23.25 14.5621ZM23.25 12.4895C20.1273 12.4895 19.7347 12.5032 18.5067 12.558C17.2832 12.6128 16.4477 12.8091 15.7173 13.0921C14.9594 13.3843 14.3203 13.7815 13.6811 14.4206C13.042 15.0598 12.6494 15.7035 12.3526 16.4568C12.0696 17.1872 11.8733 18.0227 11.8185 19.2507C11.7637 20.4742 11.75 20.8668 11.75 23.9895C11.75 27.1122 11.7637 27.5048 11.8185 28.7329C11.8733 29.9564 12.0696 30.7918 12.3526 31.5268C12.6448 32.2847 13.042 32.9238 13.6811 33.5629C14.3203 34.2021 14.964 34.5947 15.7173 34.8914C16.4477 35.1745 17.2832 35.3708 18.5112 35.4256C19.7393 35.4804 20.1273 35.4941 23.2546 35.4941C26.3818 35.4941 26.7699 35.4804 27.9979 35.4256C29.2214 35.3708 30.0569 35.1745 30.7919 34.8914C31.5497 34.5993 32.1889 34.2021 32.828 33.5629C33.4672 32.9238 33.8598 32.2801 34.1565 31.5268C34.4396 30.7964 34.6359 29.9609 34.6907 28.7329C34.7455 27.5048 34.7591 27.1167 34.7591 23.9895C34.7591 20.8623 34.7455 20.4742 34.6907 19.2462C34.6359 18.0226 34.4396 17.1872 34.1565 16.4522C33.8643 15.6943 33.4672 15.0552 32.828 14.4161C32.1889 13.7769 31.5452 13.3843 30.7919 13.0876C30.0614 12.8045 29.226 12.6082 27.9979 12.5534C26.7653 12.5032 26.3727 12.4895 23.25 12.4895Z" fill="white"/>
<path d="M23.25 14.5621C26.3225 14.5621 26.6831 14.5758 27.8975 14.6306C29.0206 14.6808 29.6277 14.868 30.0341 15.0278C30.5728 15.2378 30.9562 15.4843 31.358 15.8861C31.7597 16.2878 32.0108 16.6713 32.2163 17.21C32.3715 17.6163 32.5632 18.2235 32.6135 19.3466C32.6682 20.561 32.6819 20.9216 32.6819 23.9941C32.6819 27.0665 32.6682 27.4272 32.6135 28.6415C32.5632 29.7646 32.3761 30.3718 32.2163 30.7781C32.0063 31.3168 31.7597 31.7003 31.358 32.102C30.9562 32.5038 30.5728 32.7549 30.0341 32.9603C29.6277 33.1155 29.0206 33.3073 27.8975 33.3575C26.6831 33.4123 26.3225 33.426 23.25 33.426C20.1776 33.426 19.8169 33.4123 18.6025 33.3575C17.4795 33.3073 16.8723 33.1201 16.466 32.9603C15.9273 32.7503 15.5438 32.5038 15.142 32.102C14.7403 31.7003 14.4892 31.3168 14.2837 30.7781C14.1285 30.3718 13.9368 29.7646 13.8866 28.6415C13.8318 27.4272 13.8181 27.0665 13.8181 23.9941C13.8181 20.9216 13.8318 20.561 13.8866 19.3466C13.9368 18.2235 14.124 17.6163 14.2837 17.21C14.4937 16.6713 14.7403 16.2878 15.142 15.8861C15.5438 15.4843 15.9273 15.2332 16.466 15.0278C16.8723 14.8726 17.4795 14.6808 18.6025 14.6306C19.8169 14.5713 20.1821 14.5621 23.25 14.5621Z" fill="white"/>
<path d="M23.2513 18.0864C19.9916 18.0864 17.3438 20.7297 17.3438 23.9939C17.3438 27.2581 19.9871 29.9014 23.2513 29.9014C26.5154 29.9014 29.1588 27.2581 29.1588 23.9939C29.1588 20.7297 26.5154 18.0864 23.2513 18.0864ZM23.2513 27.8242C21.133 27.8242 19.4164 26.1077 19.4164 23.9894C19.4164 21.8711 21.133 20.1545 23.2513 20.1545C25.3696 20.1545 27.0861 21.8711 27.0861 23.9894C27.0861 26.1077 25.3696 27.8242 23.2513 27.8242Z" fill="#2D2424"/>
<path d="M29.3865 19.2279C30.148 19.2279 30.7653 18.6106 30.7653 17.8492C30.7653 17.0877 30.148 16.4705 29.3865 16.4705C28.6251 16.4705 28.0078 17.0877 28.0078 17.8492C28.0078 18.6106 28.6251 19.2279 29.3865 19.2279Z" fill="#2D2424"/>
</g>
<defs>
<clipPath id="clip0_417_8448">
<rect width="23" height="23" fill="white" transform="translate(11.75 12.4895)"/>
</clipPath>
</defs>
</svg>
