<svg width="47" height="47" viewBox="0 0 47 47" fill="none" xmlns="http://www.w3.org/2000/svg">
<rect x="1.3151" y="1.46867" width="45.0417" height="45.0417" rx="22.5208" stroke="white" stroke-width="0.958333"/>
<g clip-path="url(#clip0_417_8445)">
<path d="M33.6381 12.4895H14.0338C13.5835 12.4895 13.1516 12.6684 12.8332 12.9868C12.5148 13.3052 12.3359 13.7371 12.3359 14.1873V33.7917C12.3359 34.242 12.5148 34.6738 12.8332 34.9922C13.1516 35.3106 13.5835 35.4895 14.0338 35.4895H33.6381C34.0884 35.4895 34.5202 35.3106 34.8386 34.9922C35.1571 34.6738 35.3359 34.242 35.3359 33.7917V14.1873C35.3359 13.7371 35.1571 13.3052 34.8386 12.9868C34.5202 12.6684 34.0884 12.4895 33.6381 12.4895ZM19.1912 32.0826H15.7332V21.0985H19.1912V32.0826ZM17.4598 19.5764C17.0676 19.5742 16.6848 19.4558 16.3597 19.2363C16.0347 19.0167 15.782 18.7058 15.6334 18.3427C15.4849 17.9796 15.4473 17.5807 15.5253 17.1963C15.6033 16.8119 15.7934 16.4592 16.0717 16.1827C16.3499 15.9062 16.7038 15.7184 17.0888 15.6429C17.4737 15.5673 17.8723 15.6075 18.2344 15.7584C18.5965 15.9092 18.9058 16.1639 19.1233 16.4904C19.3408 16.8168 19.4567 17.2004 19.4564 17.5926C19.4601 17.8552 19.4108 18.1159 19.3117 18.3591C19.2125 18.6023 19.0653 18.823 18.879 19.0081C18.6927 19.1933 18.471 19.339 18.2272 19.4366C17.9834 19.5342 17.7224 19.5818 17.4598 19.5764ZM31.937 32.0922H28.4807V26.0914C28.4807 24.3217 27.7284 23.7755 26.7573 23.7755C25.7318 23.7755 24.7256 24.5485 24.7256 26.1362V32.0922H21.2676V21.1065H24.593V22.6287H24.6377C24.9716 21.953 26.1407 20.7983 27.9248 20.7983C29.8543 20.7983 31.9386 21.9435 31.9386 25.2976L31.937 32.0922Z" fill="white"/>
</g>
<defs>
<clipPath id="clip0_417_8445">
<rect width="23" height="23" fill="white" transform="translate(12.3359 12.4895)"/>
</clipPath>
</defs>
</svg>
