<svg width="47" height="47" viewBox="0 0 47 47" fill="none" xmlns="http://www.w3.org/2000/svg">
<rect x="0.893229" y="1.46867" width="45.0417" height="45.0417" rx="22.5208" stroke="white" stroke-width="0.958333"/>
<g clip-path="url(#clip0_417_8442)">
<path d="M32.0968 19.3709C32.1057 19.5733 32.1057 19.7665 32.1057 19.9689C32.1146 26.1053 27.6061 33.1893 19.3614 33.1893C16.9296 33.1893 14.5423 32.4625 12.4922 31.1009C12.8472 31.1469 13.2022 31.1653 13.5572 31.1653C15.5718 31.1653 17.5331 30.4661 19.1217 29.1689C17.2048 29.1321 15.5185 27.8349 14.9328 25.9397C15.6073 26.0777 16.2995 26.0501 16.9563 25.8569C14.8707 25.4337 13.3708 23.5293 13.3619 21.3121C13.3619 21.2937 13.3619 21.2753 13.3619 21.2569C13.9832 21.6157 14.6843 21.8181 15.3943 21.8365C13.4329 20.4749 12.8206 17.7609 14.0098 15.6357C16.2906 18.5429 19.6454 20.3001 23.2486 20.4933C22.8847 18.8833 23.3817 17.1905 24.5443 16.0497C26.3459 14.2924 29.1859 14.3844 30.8899 16.2521C31.8927 16.0497 32.8601 15.6633 33.7387 15.1204C33.4014 16.1969 32.7003 17.1077 31.7685 17.6873C32.656 17.5769 33.5257 17.3285 34.3422 16.9605C33.7387 17.8989 32.9755 18.7085 32.0968 19.3709Z" fill="white"/>
</g>
<defs>
<clipPath id="clip0_417_8442">
<rect width="23" height="23" fill="white" transform="translate(11.9141 12.4895)"/>
</clipPath>
</defs>
</svg>
