<svg width="15" height="12" viewBox="0 0 15 12" fill="none" xmlns="http://www.w3.org/2000/svg">
<g clip-path="url(#clip0_402_40615)">
<mask id="path-1-inside-1_402_40615" fill="white">
<path d="M0.160156 1.99769C0.160156 1.02465 0.948962 0.23584 1.922 0.23584H12.4931C13.4661 0.23584 14.2549 1.02465 14.2549 1.99769V9.48554C14.2549 10.4586 13.4661 11.2474 12.4931 11.2474H1.922C0.948961 11.2474 0.160156 10.4586 0.160156 9.48554V1.99769Z"/>
</mask>
<path d="M0.160156 1.99769C0.160156 1.02465 0.948962 0.23584 1.922 0.23584H12.4931C13.4661 0.23584 14.2549 1.02465 14.2549 1.99769V9.48554C14.2549 10.4586 13.4661 11.2474 12.4931 11.2474H1.922C0.948961 11.2474 0.160156 10.4586 0.160156 9.48554V1.99769Z" fill="#DCDCE5"/>
<g clip-path="url(#clip1_402_40615)">
<g clip-path="url(#clip2_402_40615)">
<path fill-rule="evenodd" clip-rule="evenodd" d="M0.160156 0.456055H20.2454V1.26922H0.160156V0.456055ZM0.160156 2.08239H20.2454V2.89556H0.160156V2.08239ZM0.160156 3.70873H20.2454V4.5219H0.160156V3.70873ZM0.160156 5.33506H20.2454V6.14823H0.160156V5.33506ZM0.160156 6.9614H20.2454V7.77457H0.160156V6.9614ZM0.160156 8.58774H20.2454V9.4009H0.160156V8.58774ZM0.160156 10.2141H20.2454V11.0272H0.160156V10.2141Z" fill="#BD3D44"/>
<path fill-rule="evenodd" clip-rule="evenodd" d="M0.160156 1.26904H20.2454V2.08221H0.160156V1.26904ZM0.160156 2.89538H20.2454V3.70855H0.160156V2.89538ZM0.160156 4.52172H20.2454V5.33488H0.160156V4.52172ZM0.160156 6.14805H20.2454V6.96122H0.160156V6.14805ZM0.160156 7.77439H20.2454V8.58756H0.160156V7.77439ZM0.160156 9.40072H20.2454V10.2139H0.160156V9.40072Z" fill="white"/>
<path fill-rule="evenodd" clip-rule="evenodd" d="M0.160156 0.456055H8.19418V6.14813H0.160156V0.456055Z" fill="#192F5D"/>
<path fill-rule="evenodd" clip-rule="evenodd" d="M0.82919 0.699707L0.902279 0.924673H1.13885L0.947454 1.06373L1.02056 1.28869L0.829169 1.14966L0.637816 1.28869L0.710905 1.06373L0.519531 0.924673H0.75608L0.82919 0.699707ZM2.16819 0.699707L2.2413 0.924673H2.47787L2.28647 1.06373L2.35958 1.28869L2.16819 1.14966L1.97683 1.28869L2.04992 1.06373L1.85855 0.924673H2.0951L2.16819 0.699707ZM3.50725 0.699707L3.58033 0.924673H3.8169L3.62551 1.06373L3.69862 1.28869L3.50725 1.14966L3.31587 1.28869L3.38896 1.06373L3.19759 0.924673H3.43416L3.50725 0.699707ZM4.84622 0.699707L4.91931 0.924673H5.15586L4.96449 1.06373L5.03757 1.28869L4.84622 1.14966L4.65483 1.28869L4.72794 1.06373L4.53654 0.924673H4.77311L4.84622 0.699707ZM6.18526 0.699707L6.25835 0.924673H6.49492L6.30352 1.06373L6.37663 1.28869L6.18524 1.14966L5.99389 1.28869L6.06698 1.06373L5.8756 0.924673H6.11215L6.18526 0.699707ZM7.5243 0.699707L7.59739 0.924673H7.83396L7.64256 1.06373L7.71567 1.28869L7.5243 1.14966L7.3329 1.28869L7.40603 1.06373L7.21464 0.924673H7.45121L7.5243 0.699707ZM1.49872 1.26894L1.57181 1.4939H1.80838L1.61698 1.63294L1.69011 1.85792L1.49872 1.71889L1.30735 1.85792L1.38043 1.63294L1.18906 1.4939H1.42563L1.49872 1.26894ZM2.8377 1.26894L2.91078 1.4939H3.14733L2.95596 1.63294L3.02905 1.85792L2.8377 1.71889L2.6463 1.85792L2.71941 1.63294L2.52802 1.4939H2.76459L2.8377 1.26894ZM4.17673 1.26894L4.24982 1.4939H4.48639L4.295 1.63294L4.36811 1.85792L4.17671 1.71889L3.98536 1.85792L4.05845 1.63294L3.86707 1.4939H4.10362L4.17673 1.26894ZM5.51577 1.26894L5.58886 1.4939H5.82543L5.63404 1.63294L5.70715 1.85792L5.51577 1.71889L5.32438 1.85792L5.39753 1.63294L5.20613 1.4939H5.4427L5.51577 1.26894ZM6.85475 1.26894L6.92784 1.4939H7.16438L6.97301 1.63294L7.0461 1.85792L6.85475 1.71889L6.66335 1.85792L6.73646 1.63294L6.54507 1.4939H6.78164L6.85475 1.26894ZM0.82919 1.83814L0.902279 2.06311H1.13885L0.947454 2.20216L1.02056 2.42713L0.829169 2.28809L0.637816 2.42713L0.710905 2.20216L0.519531 2.06311H0.75608L0.82919 1.83814ZM2.16819 1.83814L2.2413 2.06311H2.47787L2.28647 2.20216L2.35958 2.42713L2.16819 2.28809L1.97683 2.42713L2.04992 2.20216L1.85855 2.06311H2.0951L2.16819 1.83814ZM3.50725 1.83814L3.58033 2.06311H3.8169L3.62551 2.20216L3.69862 2.42713L3.50725 2.28809L3.31587 2.42713L3.38896 2.20216L3.19759 2.06311H3.43416L3.50725 1.83814ZM4.84622 1.83814L4.91931 2.06311H5.15586L4.96449 2.20216L5.03757 2.42713L4.84622 2.28809L4.65483 2.42713L4.72794 2.20216L4.53654 2.06311H4.77311L4.84622 1.83814ZM6.18526 1.83814L6.25835 2.06311H6.49492L6.30352 2.20216L6.37663 2.42713L6.18524 2.28809L5.99389 2.42713L6.06698 2.20216L5.8756 2.06311H6.11215L6.18526 1.83814ZM7.5243 1.83814L7.59739 2.06311H7.83396L7.64256 2.20216L7.71567 2.42713L7.5243 2.28809L7.3329 2.42713L7.40603 2.20216L7.21464 2.06311H7.45121L7.5243 1.83814ZM1.49872 2.40735L1.57181 2.63234H1.80838L1.61698 2.77137L1.69011 2.99636L1.49872 2.85732L1.30735 2.99636L1.38043 2.77137L1.18906 2.63234H1.42563L1.49872 2.40735ZM2.8377 2.40735L2.91078 2.63234H3.14733L2.95596 2.77137L3.02905 2.99636L2.8377 2.85732L2.6463 2.99636L2.71941 2.77137L2.52802 2.63234H2.76459L2.8377 2.40735ZM4.17673 2.40735L4.24982 2.63234H4.48639L4.295 2.77137L4.36811 2.99636L4.17671 2.85732L3.98536 2.99636L4.05845 2.77137L3.86707 2.63234H4.10362L4.17673 2.40735ZM5.51577 2.40735L5.58886 2.63234H5.82543L5.63404 2.77137L5.70715 2.99636L5.51577 2.85732L5.32438 2.99636L5.39751 2.77137L5.20611 2.63234H5.44268L5.51577 2.40735ZM6.85475 2.40735L6.92784 2.63234H7.16438L6.97301 2.77137L7.0461 2.99636L6.85475 2.85732L6.66335 2.99636L6.73646 2.77137L6.54507 2.63234H6.78164L6.85475 2.40735ZM0.82919 2.97658L0.902279 3.20154H1.13885L0.947454 3.3406L1.02056 3.56556L0.829169 3.42653L0.637816 3.56556L0.710905 3.3406L0.519531 3.20154H0.75608L0.82919 2.97658ZM2.16819 2.97658L2.2413 3.20154H2.47787L2.28647 3.3406L2.35958 3.56556L2.16819 3.42653L1.97683 3.56556L2.04992 3.3406L1.85855 3.20154H2.0951L2.16819 2.97658ZM3.50725 2.97658L3.58033 3.20154H3.8169L3.62551 3.3406L3.69862 3.56556L3.50725 3.42653L3.31587 3.56556L3.38896 3.3406L3.19759 3.20154H3.43416L3.50725 2.97658ZM4.84622 2.97658L4.91931 3.20154H5.15586L4.96449 3.3406L5.03757 3.56556L4.84622 3.42653L4.65483 3.56556L4.72794 3.3406L4.53654 3.20154H4.77311L4.84622 2.97658ZM6.18526 2.97658L6.25835 3.20154H6.49492L6.30352 3.3406L6.37663 3.56556L6.18524 3.42653L5.99389 3.56556L6.06698 3.3406L5.8756 3.20154H6.11215L6.18526 2.97658ZM7.5243 2.97658L7.59739 3.20154H7.83396L7.64256 3.3406L7.71567 3.56556L7.5243 3.42653L7.3329 3.56556L7.40603 3.3406L7.21464 3.20154H7.45121L7.5243 2.97658ZM1.49872 3.54579L1.57181 3.77077H1.80838L1.61698 3.90981L1.69011 4.13479L1.49872 3.99576L1.30735 4.13479L1.38043 3.90981L1.18906 3.77077H1.42563L1.49872 3.54579ZM2.8377 3.54579L2.91078 3.77077H3.14733L2.95596 3.90981L3.02905 4.13479L2.8377 3.99576L2.6463 4.13479L2.71941 3.90981L2.52802 3.77077H2.76459L2.8377 3.54579ZM4.17673 3.54579L4.24982 3.77077H4.48639L4.295 3.90981L4.36811 4.13479L4.17671 3.99576L3.98536 4.13479L4.05845 3.90981L3.86707 3.77077H4.10362L4.17673 3.54579ZM5.51577 3.54579L5.58886 3.77077H5.82543L5.63404 3.90981L5.70715 4.13479L5.51577 3.99576L5.32438 4.13479L5.39751 3.90981L5.20611 3.77077H5.44268L5.51577 3.54579ZM6.85475 3.54579L6.92784 3.77077H7.16438L6.97301 3.90981L7.0461 4.13479L6.85475 3.99576L6.66335 4.13479L6.73646 3.90981L6.54507 3.77077H6.78164L6.85475 3.54579ZM0.82919 4.11501L0.902279 4.33998H1.13885L0.947454 4.47903L1.02056 4.704L0.829169 4.56497L0.637816 4.704L0.710905 4.47903L0.519531 4.33998H0.75608L0.82919 4.11501ZM2.16819 4.11501L2.2413 4.33998H2.47787L2.28647 4.47903L2.35958 4.704L2.16819 4.56497L1.97683 4.704L2.04992 4.47903L1.85855 4.33998H2.0951L2.16819 4.11501ZM3.50725 4.11501L3.58033 4.33998H3.8169L3.62551 4.47903L3.69862 4.704L3.50725 4.56497L3.31587 4.704L3.38896 4.47903L3.19759 4.33998H3.43416L3.50725 4.11501ZM4.84622 4.11501L4.91931 4.33998H5.15586L4.96449 4.47903L5.03757 4.704L4.84622 4.56497L4.65483 4.704L4.72794 4.47903L4.53654 4.33998H4.77311L4.84622 4.11501ZM6.18526 4.11501L6.25835 4.33998H6.49492L6.30352 4.47903L6.37663 4.704L6.18524 4.56497L5.99389 4.704L6.06698 4.47903L5.8756 4.33998H6.11215L6.18526 4.11501ZM7.5243 4.11501L7.59739 4.33998H7.83396L7.64256 4.47903L7.71567 4.704L7.5243 4.56497L7.3329 4.704L7.40603 4.47903L7.21464 4.33998H7.45121L7.5243 4.11501ZM1.49872 4.68422L1.57181 4.90921H1.80838L1.61698 5.04824L1.69011 5.27323L1.49872 5.13419L1.30735 5.27323L1.38043 5.04824L1.18906 4.90921H1.42563L1.49872 4.68422ZM2.8377 4.68422L2.91078 4.90921H3.14733L2.95596 5.04824L3.02905 5.27323L2.8377 5.13419L2.6463 5.27323L2.71941 5.04824L2.52802 4.90921H2.76459L2.8377 4.68422ZM4.17673 4.68422L4.24982 4.90921H4.48639L4.295 5.04824L4.36811 5.27323L4.17671 5.13419L3.98536 5.27323L4.05845 5.04824L3.86707 4.90921H4.10362L4.17673 4.68422ZM5.51577 4.68422L5.58886 4.90921H5.82543L5.63404 5.04824L5.70715 5.27323L5.51577 5.13419L5.32438 5.27323L5.39751 5.04824L5.20611 4.90921H5.44268L5.51577 4.68422ZM6.85475 4.68422L6.92784 4.90921H7.16438L6.97301 5.04824L7.0461 5.27323L6.85475 5.13419L6.66335 5.27323L6.73646 5.04824L6.54507 4.90921H6.78164L6.85475 4.68422ZM0.82919 5.25345L0.902279 5.47841H1.13885L0.947454 5.61747L1.02056 5.84244L0.829169 5.7034L0.637816 5.84244L0.710905 5.61747L0.519531 5.47841H0.75608L0.82919 5.25345ZM2.16819 5.25345L2.2413 5.47841H2.47787L2.28647 5.61747L2.35958 5.84244L2.16819 5.7034L1.97683 5.84244L2.04992 5.61747L1.85855 5.47841H2.0951L2.16819 5.25345ZM3.50725 5.25345L3.58033 5.47841H3.8169L3.62551 5.61747L3.69862 5.84244L3.50725 5.7034L3.31587 5.84244L3.38896 5.61747L3.19759 5.47841H3.43416L3.50725 5.25345ZM4.84622 5.25345L4.91931 5.47841H5.15586L4.96449 5.61747L5.03757 5.84244L4.84622 5.7034L4.65483 5.84244L4.72794 5.61747L4.53654 5.47841H4.77311L4.84622 5.25345ZM6.18526 5.25345L6.25835 5.47841H6.49492L6.30352 5.61747L6.37663 5.84244L6.18524 5.7034L5.99389 5.84244L6.06698 5.61747L5.8756 5.47841H6.11215L6.18526 5.25345ZM7.5243 5.25345L7.59739 5.47841H7.83396L7.64256 5.61747L7.71567 5.84244L7.5243 5.7034L7.3329 5.84244L7.40603 5.61747L7.21464 5.47841H7.45121L7.5243 5.25345Z" fill="white"/>
</g>
</g>
</g>
<path d="M1.922 1.11676H12.4931V-0.645084H1.922V1.11676ZM13.374 1.99769V9.48554H15.1359V1.99769H13.374ZM12.4931 10.3665H1.922V12.1283H12.4931V10.3665ZM1.04108 9.48554V1.99769H-0.720767V9.48554H1.04108ZM1.922 10.3665C1.43548 10.3665 1.04108 9.97206 1.04108 9.48554H-0.720767C-0.720767 10.9451 0.46244 12.1283 1.922 12.1283V10.3665ZM13.374 9.48554C13.374 9.97206 12.9796 10.3665 12.4931 10.3665V12.1283C13.9526 12.1283 15.1359 10.9451 15.1359 9.48554H13.374ZM12.4931 1.11676C12.9796 1.11676 13.374 1.51117 13.374 1.99769H15.1359C15.1359 0.538126 13.9526 -0.645084 12.4931 -0.645084V1.11676ZM1.922 -0.645084C0.46244 -0.645084 -0.720767 0.538128 -0.720767 1.99769H1.04108C1.04108 1.51117 1.43548 1.11676 1.922 1.11676V-0.645084Z" fill="#DCDCE5" mask="url(#path-1-inside-1_402_40615)"/>
<defs>
<clipPath id="clip0_402_40615">
<path d="M0.160156 1.99769C0.160156 1.02465 0.948962 0.23584 1.922 0.23584H12.4931C13.4661 0.23584 14.2549 1.02465 14.2549 1.99769V9.48554C14.2549 10.4586 13.4661 11.2474 12.4931 11.2474H1.922C0.948961 11.2474 0.160156 10.4586 0.160156 9.48554V1.99769Z" fill="white"/>
</clipPath>
<clipPath id="clip1_402_40615">
<rect width="14.0948" height="11.0115" fill="white" transform="translate(0.160156 0.23584)"/>
</clipPath>
<clipPath id="clip2_402_40615">
<rect width="14.0948" height="10.5711" fill="white" transform="translate(0.160156 0.456055)"/>
</clipPath>
</defs>
</svg>
