<svg width="15" height="14" viewBox="0 0 15 14" fill="none" xmlns="http://www.w3.org/2000/svg">
<path fill-rule="evenodd" clip-rule="evenodd" d="M8.27551 1.58399C7.95693 1.3066 7.54876 1.15381 7.12634 1.15381C6.70392 1.15381 6.29576 1.3066 5.97718 1.58399L5.31101 2.16441C5.07402 2.37064 4.78588 2.50926 4.47684 2.56574L3.60826 2.72499C3.19286 2.80118 2.81902 3.02503 2.55572 3.35523C2.29241 3.68543 2.1574 4.09972 2.17559 4.52166L2.21351 5.40424C2.22711 5.71808 2.15598 6.02979 2.00759 6.30666L1.59051 7.08483C1.39085 7.45721 1.33267 7.88926 1.4267 8.30119C1.52073 8.71312 1.76063 9.07713 2.10209 9.32599L2.81551 9.84633C3.06944 10.0312 3.26892 10.2811 3.39301 10.5697L3.74126 11.3811C3.90789 11.7693 4.20933 12.0841 4.58995 12.2675C4.97056 12.4508 5.40465 12.4903 5.81209 12.3786L6.66376 12.1452C6.96656 12.0622 7.28612 12.0622 7.58893 12.1452L8.44059 12.3786C8.84803 12.4903 9.28212 12.4508 9.66274 12.2675C10.0434 12.0841 10.3448 11.7693 10.5114 11.3811L10.8603 10.5702C10.9841 10.2815 11.1834 10.0315 11.4372 9.84633L12.1506 9.32599C12.4921 9.07713 12.732 8.71312 12.826 8.30119C12.92 7.88926 12.8618 7.45721 12.6622 7.08483L12.2451 6.30666C12.0967 6.02979 12.0256 5.71808 12.0392 5.40424L12.0771 4.52166C12.0953 4.09972 11.9603 3.68543 11.697 3.35523C11.4337 3.02503 11.0598 2.80118 10.6444 2.72499L9.77526 2.56574C9.46622 2.50926 9.17808 2.37064 8.94109 2.16441L8.27551 1.58399ZM9.37101 5.55941C9.453 5.42822 9.47953 5.26982 9.44474 5.11907C9.40995 4.96833 9.3167 4.83757 9.18551 4.75558C9.05431 4.67358 8.89592 4.64706 8.74517 4.68185C8.59443 4.71663 8.46367 4.80988 8.38168 4.94108L6.64509 7.71949L5.84301 6.65024C5.79705 6.58896 5.73946 6.53733 5.67355 6.4983C5.60763 6.45927 5.53467 6.43361 5.45884 6.42277C5.383 6.41194 5.30578 6.41615 5.23157 6.43516C5.15736 6.45417 5.08763 6.48761 5.02634 6.53358C4.96506 6.57954 4.91343 6.63712 4.8744 6.70304C4.83537 6.76895 4.8097 6.84191 4.79887 6.91775C4.78804 6.99358 4.79225 7.07081 4.81126 7.14501C4.83027 7.21922 4.86371 7.28896 4.90968 7.35024L6.22217 9.10024C6.27902 9.17604 6.35348 9.23685 6.4391 9.27741C6.52472 9.31798 6.61894 9.33707 6.7136 9.33305C6.80826 9.32903 6.90051 9.30201 6.98239 9.25434C7.06426 9.20666 7.13329 9.13975 7.18351 9.05941L9.37101 5.55941Z" fill="#121117"/>
</svg>
